<?xml version="1.0" encoding="UTF-8"?>
<!-- GitLabBar app icon source. Regenerate PNGs with scripts/generate-app-icon.sh -->
<svg xmlns="http://www.w3.org/2000/svg" width="1024" height="1024" viewBox="0 0 1024 1024">
  <defs>
    <linearGradient id="bg" x1="0" y1="0" x2="0" y2="1">
      <stop offset="0" stop-color="#FC8A3A"/>
      <stop offset="0.45" stop-color="#FC6D26"/>
      <stop offset="1" stop-color="#DB3B21"/>
    </linearGradient>
    <linearGradient id="gloss" x1="0" y1="0" x2="0" y2="1">
      <stop offset="0" stop-color="#FFFFFF" stop-opacity="0.28"/>
      <stop offset="0.5" stop-color="#FFFFFF" stop-opacity="0.04"/>
      <stop offset="1" stop-color="#FFFFFF" stop-opacity="0"/>
    </linearGradient>
    <filter id="glyphShadow" x="-20%" y="-20%" width="140%" height="140%">
      <feDropShadow dx="0" dy="10" stdDeviation="14" flood-color="#7A1E0C" flood-opacity="0.35"/>
    </filter>
    <clipPath id="plate">
      <path d="M 924.0,512.0
     L 923.9,608.0 923.8,638.6 923.5,660.9 923.1,679.0 922.6,694.5 922.0,708.2 921.2,720.5 920.4,731.8
       919.4,742.2 918.3,751.9 917.1,761.0 915.8,769.6 914.4,777.6 912.8,785.3 911.2,792.6 909.4,799.5
       907.5,806.1 905.4,812.4 903.3,818.5 901.0,824.2 898.5,829.8 896.0,835.1 893.3,840.2 890.5,845.1
       887.6,849.8 884.5,854.3 881.2,858.7 877.9,862.8 874.3,866.8 870.7,870.7 866.8,874.3 862.8,877.9
       858.7,881.2 854.3,884.5 849.8,887.6 845.1,890.5 840.2,893.3 835.1,896.0 829.8,898.5 824.2,901.0
       818.5,903.3 812.4,905.4 806.1,907.5 799.5,909.4 792.6,911.2 785.3,912.8 777.6,914.4 769.6,915.8
       761.0,917.1 751.9,918.3 742.2,919.4 731.8,920.4 720.5,921.2 708.2,922.0 694.5,922.6 679.0,923.1
       660.9,923.5 638.6,923.8 608.0,923.9 512.0,924.0 416.0,923.9 385.4,923.8 363.1,923.5 345.0,923.1
       329.5,922.6 315.8,922.0 303.5,921.2 292.2,920.4 281.8,919.4 272.1,918.3 263.0,917.1 254.4,915.8
       246.4,914.4 238.7,912.8 231.4,911.2 224.5,909.4 217.9,907.5 211.6,905.4 205.5,903.3 199.8,901.0
       194.2,898.5 188.9,896.0 183.8,893.3 178.9,890.5 174.2,887.6 169.7,884.5 165.3,881.2 161.2,877.9
       157.2,874.3 153.3,870.7 149.7,866.8 146.1,862.8 142.8,858.7 139.5,854.3 136.4,849.8 133.5,845.1
       130.7,840.2 128.0,835.1 125.5,829.8 123.0,824.2 120.7,818.5 118.6,812.4 116.5,806.1 114.6,799.5
       112.8,792.6 111.2,785.3 109.6,777.6 108.2,769.6 106.9,761.0 105.7,751.9 104.6,742.2 103.6,731.8
       102.8,720.5 102.0,708.2 101.4,694.5 100.9,679.0 100.5,660.9 100.2,638.6 100.1,608.0 100.0,512.0
       100.1,416.0 100.2,385.4 100.5,363.1 100.9,345.0 101.4,329.5 102.0,315.8 102.8,303.5 103.6,292.2
       104.6,281.8 105.7,272.1 106.9,263.0 108.2,254.4 109.6,246.4 111.2,238.7 112.8,231.4 114.6,224.5
       116.5,217.9 118.6,211.6 120.7,205.5 123.0,199.8 125.5,194.2 128.0,188.9 130.7,183.8 133.5,178.9
       136.4,174.2 139.5,169.7 142.8,165.3 146.1,161.2 149.7,157.2 153.3,153.3 157.2,149.7 161.2,146.1
       165.3,142.8 169.7,139.5 174.2,136.4 178.9,133.5 183.8,130.7 188.9,128.0 194.2,125.5 199.8,123.0
       205.5,120.7 211.6,118.6 217.9,116.5 224.5,114.6 231.4,112.8 238.7,111.2 246.4,109.6 254.4,108.2
       263.0,106.9 272.1,105.7 281.8,104.6 292.2,103.6 303.5,102.8 315.8,102.0 329.5,101.4 345.0,100.9
       363.1,100.5 385.4,100.2 416.0,100.1 512.0,100.0 608.0,100.1 638.6,100.2 660.9,100.5 679.0,100.9
       694.5,101.4 708.2,102.0 720.5,102.8 731.8,103.6 742.2,104.6 751.9,105.7 761.0,106.9 769.6,108.2
       777.6,109.6 785.3,111.2 792.6,112.8 799.5,114.6 806.1,116.5 812.4,118.6 818.5,120.7 824.2,123.0
       829.8,125.5 835.1,128.0 840.2,130.7 845.1,133.5 849.8,136.4 854.3,139.5 858.7,142.8 862.8,146.1
       866.8,149.7 870.7,153.3 874.3,157.2 877.9,161.2 881.2,165.3 884.5,169.7 887.6,174.2 890.5,178.9
       893.3,183.8 896.0,188.9 898.5,194.2 901.0,199.8 903.3,205.5 905.4,211.6 907.5,217.9 909.4,224.5
       911.2,231.4 912.8,238.7 914.4,246.4 915.8,254.4 917.1,263.0 918.3,272.1 919.4,281.8 920.4,292.2
       921.2,303.5 922.0,315.8 922.6,329.5 923.1,345.0 923.5,363.1 923.8,385.4 923.9,416.0 Z"/>
    </clipPath>
  </defs>

  <!-- rounded squircle plate -->
  <path d="M 924.0,512.0
     L 923.9,608.0 923.8,638.6 923.5,660.9 923.1,679.0 922.6,694.5 922.0,708.2 921.2,720.5 920.4,731.8
       919.4,742.2 918.3,751.9 917.1,761.0 915.8,769.6 914.4,777.6 912.8,785.3 911.2,792.6 909.4,799.5
       907.5,806.1 905.4,812.4 903.3,818.5 901.0,824.2 898.5,829.8 896.0,835.1 893.3,840.2 890.5,845.1
       887.6,849.8 884.5,854.3 881.2,858.7 877.9,862.8 874.3,866.8 870.7,870.7 866.8,874.3 862.8,877.9
       858.7,881.2 854.3,884.5 849.8,887.6 845.1,890.5 840.2,893.3 835.1,896.0 829.8,898.5 824.2,901.0
       818.5,903.3 812.4,905.4 806.1,907.5 799.5,909.4 792.6,911.2 785.3,912.8 777.6,914.4 769.6,915.8
       761.0,917.1 751.9,918.3 742.2,919.4 731.8,920.4 720.5,921.2 708.2,922.0 694.5,922.6 679.0,923.1
       660.9,923.5 638.6,923.8 608.0,923.9 512.0,924.0 416.0,923.9 385.4,923.8 363.1,923.5 345.0,923.1
       329.5,922.6 315.8,922.0 303.5,921.2 292.2,920.4 281.8,919.4 272.1,918.3 263.0,917.1 254.4,915.8
       246.4,914.4 238.7,912.8 231.4,911.2 224.5,909.4 217.9,907.5 211.6,905.4 205.5,903.3 199.8,901.0
       194.2,898.5 188.9,896.0 183.8,893.3 178.9,890.5 174.2,887.6 169.7,884.5 165.3,881.2 161.2,877.9
       157.2,874.3 153.3,870.7 149.7,866.8 146.1,862.8 142.8,858.7 139.5,854.3 136.4,849.8 133.5,845.1
       130.7,840.2 128.0,835.1 125.5,829.8 123.0,824.2 120.7,818.5 118.6,812.4 116.5,806.1 114.6,799.5
       112.8,792.6 111.2,785.3 109.6,777.6 108.2,769.6 106.9,761.0 105.7,751.9 104.6,742.2 103.6,731.8
       102.8,720.5 102.0,708.2 101.4,694.5 100.9,679.0 100.5,660.9 100.2,638.6 100.1,608.0 100.0,512.0
       100.1,416.0 100.2,385.4 100.5,363.1 100.9,345.0 101.4,329.5 102.0,315.8 102.8,303.5 103.6,292.2
       104.6,281.8 105.7,272.1 106.9,263.0 108.2,254.4 109.6,246.4 111.2,238.7 112.8,231.4 114.6,224.5
       116.5,217.9 118.6,211.6 120.7,205.5 123.0,199.8 125.5,194.2 128.0,188.9 130.7,183.8 133.5,178.9
       136.4,174.2 139.5,169.7 142.8,165.3 146.1,161.2 149.7,157.2 153.3,153.3 157.2,149.7 161.2,146.1
       165.3,142.8 169.7,139.5 174.2,136.4 178.9,133.5 183.8,130.7 188.9,128.0 194.2,125.5 199.8,123.0
       205.5,120.7 211.6,118.6 217.9,116.5 224.5,114.6 231.4,112.8 238.7,111.2 246.4,109.6 254.4,108.2
       263.0,106.9 272.1,105.7 281.8,104.6 292.2,103.6 303.5,102.8 315.8,102.0 329.5,101.4 345.0,100.9
       363.1,100.5 385.4,100.2 416.0,100.1 512.0,100.0 608.0,100.1 638.6,100.2 660.9,100.5 679.0,100.9
       694.5,101.4 708.2,102.0 720.5,102.8 731.8,103.6 742.2,104.6 751.9,105.7 761.0,106.9 769.6,108.2
       777.6,109.6 785.3,111.2 792.6,112.8 799.5,114.6 806.1,116.5 812.4,118.6 818.5,120.7 824.2,123.0
       829.8,125.5 835.1,128.0 840.2,130.7 845.1,133.5 849.8,136.4 854.3,139.5 858.7,142.8 862.8,146.1
       866.8,149.7 870.7,153.3 874.3,157.2 877.9,161.2 881.2,165.3 884.5,169.7 887.6,174.2 890.5,178.9
       893.3,183.8 896.0,188.9 898.5,194.2 901.0,199.8 903.3,205.5 905.4,211.6 907.5,217.9 909.4,224.5
       911.2,231.4 912.8,238.7 914.4,246.4 915.8,254.4 917.1,263.0 918.3,272.1 919.4,281.8 920.4,292.2
       921.2,303.5 922.0,315.8 922.6,329.5 923.1,345.0 923.5,363.1 923.8,385.4 923.9,416.0 Z" fill="url(#bg)"/>
  <g clip-path="url(#plate)">
    <ellipse cx="512" cy="150" rx="620" ry="420" fill="url(#gloss)"/>
  </g>

  <!-- pipeline graph glyph -->
  <g filter="url(#glyphShadow)" fill="none" stroke="#FFFFFF" stroke-width="46"
     stroke-linecap="round" stroke-linejoin="round">
    <path d="M 340 388 H 688"/>
    <path d="M 340 388 V 540 Q 340 632 432 632 H 688"/>
  </g>
  <g fill="#FFFFFF" filter="url(#glyphShadow)">
    <circle cx="340" cy="388" r="74"/>
    <circle cx="688" cy="388" r="74"/>
    <circle cx="688" cy="632" r="74"/>
  </g>
  <g fill="#E24329">
    <circle cx="340" cy="388" r="30"/>
    <circle cx="688" cy="388" r="30"/>
    <circle cx="688" cy="632" r="30"/>
  </g>
</svg>
